<svg xmlns="http://www.w3.org/2000/svg" xmlns:xlink="http://www.w3.org/1999/xlink" id="Layer_1" x="0px" y="0px" viewBox="0 0 905.8 316" style="enable-background:new 0 0 905.8 316;" xml:space="preserve"><style type="text/css">	.st0{clip-path:url(#SVGID_2_);fill:url(#SVGID_3_);}	.st1{clip-path:url(#SVGID_5_);fill:url(#SVGID_6_);}	.st2{clip-path:url(#SVGID_8_);fill:url(#SVGID_9_);}	.st3{clip-path:url(#SVGID_11_);fill:url(#SVGID_12_);}	.st4{clip-path:url(#SVGID_14_);fill:url(#SVGID_15_);}	.st5{clip-path:url(#SVGID_17_);fill:url(#SVGID_18_);}	.st6{clip-path:url(#SVGID_20_);fill:url(#SVGID_21_);}	.st7{fill:#FFFFFF;}</style><g>	<g>		<g>			<defs>				<path id="SVGID_1_" d="M710.9,148.3c0-29.2,23.6-52.8,52.8-52.8s52.8,23.6,52.8,52.8s-23.7,52.8-52.8,52.8     C734.5,201.1,710.9,177.5,710.9,148.3 M686.8,148.3c0,42.5,34.4,76.9,76.9,76.9c20.7,0,39.6-8.2,53.4-21.6v21.6h23.5v-76.9l0,0     c0-42.5-34.4-76.9-76.9-76.9C721.2,71.4,686.8,105.8,686.8,148.3"></path>			</defs>			<clipPath id="SVGID_2_">				<use xlink:href="#SVGID_1_" style="overflow:visible;"></use>			</clipPath>							<linearGradient id="SVGID_3_" gradientUnits="userSpaceOnUse" x1="-923.0004" y1="720.4034" x2="-922.0004" y2="720.4034" gradientTransform="matrix(0 -154.3857 -154.3857 0 111983.6875 -142274.25)">				<stop offset="0" style="stop-color:#CB6CE6"></stop>				<stop offset="1" style="stop-color:#5E17EB"></stop>			</linearGradient>			<rect x="686.8" y="71.4" class="st0" width="153.8" height="153.8"></rect>		</g>	</g></g><g>	<g>		<g>			<defs>				<path id="SVGID_4_" d="M31.1,148.3c0-29.2,23.6-52.8,52.8-52.8s52.8,23.6,52.8,52.8s-23.6,52.8-52.8,52.8S31.1,177.5,31.1,148.3      M7,148.3c0,42.5,34.4,76.9,76.9,76.9c20.7,0,39.6-8.2,53.4-21.6v21.6h23.5v-76.9l0,0c0-42.5-34.4-76.9-76.9-76.9     C41.4,71.4,7,105.8,7,148.3"></path>			</defs>			<clipPath id="SVGID_5_">				<use xlink:href="#SVGID_4_" style="overflow:visible;"></use>			</clipPath>							<linearGradient id="SVGID_6_" gradientUnits="userSpaceOnUse" x1="-923.0004" y1="720.4035" x2="-922.0004" y2="720.4035" gradientTransform="matrix(0 -154.3857 -154.3857 0 111303.8984 -142274.25)">				<stop offset="0" style="stop-color:#CB6CE6"></stop>				<stop offset="1" style="stop-color:#5E17EB"></stop>			</linearGradient>			<rect x="7" y="71.4" class="st1" width="153.8" height="153.8"></rect>		</g>	</g></g><g>	<g>		<g>			<defs>				<path id="SVGID_7_" d="M406.6,160.3C406.6,160.4,406.6,160.4,406.6,160.3C406.6,160.3,406.6,160.2,406.6,160.3     C406.6,160.2,406.6,160.3,406.6,160.3 M278.2,148.3c0,42.5,34.4,76.9,76.9,76.9c20.7,0,39.6-8.2,53.4-21.6     c1.5-1.5,4.4-4.7,5.9-6.3l3.6-5c-9.1-15.7-11.4-32.1-11.4-32.1c-5.4,23.4-26.4,40.8-51.5,40.8c-29.2,0-52.8-23.6-52.8-52.8     s23.6-52.8,52.8-52.8c7.3,0,14.2,1.5,20.6,4.1l0.3,0.2l9-22.3c-9.2-3.9-19.3-6-29.9-6C312.7,71.5,278.2,105.9,278.2,148.3"></path>			</defs>			<clipPath id="SVGID_8_">				<use xlink:href="#SVGID_7_" style="overflow:visible;"></use>			</clipPath>							<linearGradient id="SVGID_9_" gradientUnits="userSpaceOnUse" x1="-923.0005" y1="720.4041" x2="-922.0005" y2="720.4041" gradientTransform="matrix(0 -154.3853 -154.3853 0 111567.8516 -142273.8281)">				<stop offset="0" style="stop-color:#CB6CE6"></stop>				<stop offset="1" style="stop-color:#5E17EB"></stop>			</linearGradient>			<rect x="278.2" y="71.5" class="st2" width="139.7" height="153.8"></rect>		</g>	</g></g><g>	<g>		<g>			<defs>				<path id="SVGID_10_" d="M442.4,148.3c0-29.2,23.6-52.8,52.8-52.8s52.8,23.6,52.8,52.8s-23.7,52.8-52.8,52.8     C466.1,201.1,442.4,177.5,442.4,148.3 M418.3,148.3c0,42.5,34.4,76.9,76.9,76.9c20.7,0,39.6-8.2,53.4-21.6v21.6h23.5v-76.9l0,0     c0-42.5-34.4-76.9-76.9-76.9C452.8,71.4,418.3,105.8,418.3,148.3"></path>			</defs>			<clipPath id="SVGID_11_">				<use xlink:href="#SVGID_10_" style="overflow:visible;"></use>			</clipPath>							<linearGradient id="SVGID_12_" gradientUnits="userSpaceOnUse" x1="-923.0004" y1="720.4037" x2="-922.0004" y2="720.4037" gradientTransform="matrix(0 -154.3857 -154.3857 0 111715.2266 -142274.25)">				<stop offset="0" style="stop-color:#CB6CE6"></stop>				<stop offset="1" style="stop-color:#5E17EB"></stop>			</linearGradient>			<rect x="418.3" y="71.4" class="st3" width="153.8" height="153.8"></rect>		</g>	</g></g><g>	<g>		<g>			<defs>				<path id="SVGID_13_" d="M287.2,86.8C287.2,86.8,287.3,86.8,287.2,86.8C287.2,86.8,287.2,86.7,287.2,86.8     C287.3,86.9,287.3,86.9,287.2,86.8C287.2,86.8,287.1,86.7,287.2,86.8C287.1,86.7,287.2,86.7,287.2,86.8 M179,130.2l-0.2,95h26     v-98c0,0,0.7-33.3,39.2-32.8c12.8,0.2,21.5,4.3,27.5,10.1c0.6,0.5,1.1,1.1,1.6,1.6c0.3,0.4,1,1.2,1,1.2     c4.1-10.4,13.8-19.9,13.8-19.9c-0.3-0.3-0.4-0.5-0.5-0.6c0,0,0,0-0.1-0.1l0,0c0.1,0.1,0.1,0.1,0,0c-9-9.4-23.8-15.3-42.7-15.3     C174.5,71.5,179,130.2,179,130.2"></path>			</defs>			<clipPath id="SVGID_14_">				<use xlink:href="#SVGID_13_" style="overflow:visible;"></use>			</clipPath>							<linearGradient id="SVGID_15_" gradientUnits="userSpaceOnUse" x1="-922.8978" y1="720.5323" x2="-921.8978" y2="720.5323" gradientTransform="matrix(0 -157.621 -157.621 0 113802.1797 -145240.9688)">				<stop offset="0" style="stop-color:#CB6CE6"></stop>				<stop offset="1" style="stop-color:#5E17EB"></stop>			</linearGradient>			<rect x="174.5" y="71.5" class="st4" width="113.3" height="153.7"></rect>		</g>	</g></g><g>	<g>		<g>			<defs>				<path id="SVGID_16_" d="M560.5,86.8C560.4,86.9,560.4,87,560.5,86.8C560.6,86.8,560.6,86.8,560.5,86.8     C560.6,86.8,560.5,86.8,560.5,86.8 M560.5,86.8L560.5,86.8 M560.5,86.8C560.4,87,560.4,86.9,560.5,86.8     C560.5,86.9,560.5,86.9,560.5,86.8c-0.1,0.1-0.2,0.3-0.6,0.7c0,0,9.7,9.4,13.8,19.9c0,0,0.6-0.8,1-1.2c0.5-0.6,1-1.1,1.6-1.6     c5.9-5.8,14.6-10,27.5-10.1c38.4-0.5,39.2,32.8,39.2,32.8v98h26l-0.2-95c0,0,4.5-58.7-65.6-58.7     C584.3,71.5,569.5,77.4,560.5,86.8"></path>			</defs>			<clipPath id="SVGID_17_">				<use xlink:href="#SVGID_16_" style="overflow:visible;"></use>			</clipPath>							<linearGradient id="SVGID_18_" gradientUnits="userSpaceOnUse" x1="-922.8988" y1="720.5039" x2="-921.8988" y2="720.5039" gradientTransform="matrix(0 -157.5893 -157.5893 0 114160.25 -145211.8594)">				<stop offset="0" style="stop-color:#CB6CE6"></stop>				<stop offset="1" style="stop-color:#5E17EB"></stop>			</linearGradient>			<rect x="559.9" y="71.5" class="st5" width="113.3" height="153.7"></rect>		</g>	</g></g><g>	<g>		<g>			<defs>				<path id="SVGID_19_" d="M851,48.2c0-7.1,5.7-12.8,12.8-12.8s12.8,5.7,12.8,12.8S870.9,61,863.8,61C856.8,61,851,55.2,851,48.2      M840.6,48.2c0,12.8,10.4,23.2,23.2,23.2S887,61,887,48.2S876.6,25,863.8,25S840.6,35.4,840.6,48.2"></path>			</defs>			<clipPath id="SVGID_20_">				<use xlink:href="#SVGID_19_" style="overflow:visible;"></use>			</clipPath>							<linearGradient id="SVGID_21_" gradientUnits="userSpaceOnUse" x1="-935.4225" y1="706.5019" x2="-934.4225" y2="706.5019" gradientTransform="matrix(0 -44.3104 -44.3104 0 32169.1797 -41378.6133)">				<stop offset="0" style="stop-color:#CB6CE6"></stop>				<stop offset="1" style="stop-color:#5E17EB"></stop>			</linearGradient>			<rect x="840.6" y="25" class="st6" width="46.4" height="46.4"></rect>		</g>	</g></g><path class="st7" d="M278.2,302.7v-43h15.1c3.3,0,6.3,0.5,9,1.6s5.1,2.6,7.2,4.5s3.7,4.2,4.8,6.9c1.1,2.6,1.7,5.5,1.7,8.5 c0,3.1-0.6,6-1.7,8.6s-2.7,4.9-4.8,6.8c-2,1.9-4.4,3.5-7.2,4.5c-2.7,1.1-5.8,1.6-9,1.6H278.2z M284.7,296.9h8.8 c2.3,0,4.3-0.4,6.3-1.2c1.9-0.8,3.6-1.9,5.1-3.3s2.6-3.1,3.4-5s1.2-4,1.2-6.2c0-2.3-0.4-4.3-1.2-6.3c-0.8-1.9-1.9-3.6-3.4-5 c-1.4-1.4-3.1-2.5-5-3.3c-1.9-0.8-4-1.2-6.3-1.2h-8.7v31.5L284.7,296.9L284.7,296.9z"></path><rect x="341.4" y="259.6" class="st7" width="6.5" height="43"></rect><path class="st7" d="M395.7,303.3c-3.2,0-6.1-0.6-8.8-1.7c-2.7-1.1-5.1-2.7-7.2-4.8c-2-2-3.6-4.4-4.8-7.1c-1.1-2.7-1.7-5.6-1.7-8.6 c0-3.1,0.6-6,1.7-8.6c1.1-2.7,2.7-5,4.8-7.1c2-2,4.4-3.6,7.2-4.8c2.7-1.1,5.6-1.7,8.8-1.7c3.4,0,6.7,0.7,9.7,2s5.6,3.2,7.7,5.5 l-4.4,4.2c-1.6-1.9-3.5-3.3-5.8-4.3s-4.6-1.5-7.1-1.5c-2.2,0-4.3,0.4-6.2,1.2c-1.9,0.8-3.6,2-5,3.4c-1.4,1.5-2.6,3.2-3.4,5.2 s-1.2,4.1-1.2,6.4s0.4,4.4,1.2,6.4c0.8,2,1.9,3.7,3.4,5.2c1.4,1.5,3.1,2.7,5.1,3.5c1.9,0.8,4,1.2,6.2,1.2c2.6,0,4.9-0.5,7-1.6 s3.8-2.5,5.1-4.4c1.3-1.9,2.1-4,2.4-6.4h-14.3v-5.6h21v2.3c0,3-0.5,5.9-1.6,8.5s-2.6,4.9-4.5,6.9s-4.2,3.5-6.7,4.6 C401.5,302.8,398.7,303.3,395.7,303.3"></path><rect x="442.1" y="259.6" class="st7" width="6.5" height="43"></rect><polygon class="st7" points="487.6,302.7 487.6,265.3 472.4,265.3 472.4,259.6 509.1,259.6 509.1,265.3 494,265.3 494,302.7 "></polygon><path class="st7" d="M520.9,302.7l17.8-43h7.6l17.6,43h-7l-5-12.6h-19.3l-5,12.6H520.9z M534.8,284.7h15.1l-7.5-18.9L534.8,284.7z"></path><polygon class="st7" points="586.9,302.7 586.9,259.6 593.3,259.6 593.3,297 618,297 618,302.7 "></polygon><polygon class="st7" points="674.4,302.7 674.4,259.6 680.6,259.6 704.6,291.6 704.6,259.6 710.7,259.6 710.7,302.7 705,302.7  680.5,269.8 680.5,302.7 "></polygon><polygon class="st7" points="738,302.7 738,259.6 769.7,259.6 769.7,265.3 744.5,265.3 744.5,278.2 760.9,278.2 760.9,283.7  744.5,283.7 744.5,297 770,297 770,302.7 "></polygon><polygon class="st7" points="790.7,302.7 807.2,280.4 791.6,259.6 799.4,259.6 811,275.5 822.6,259.6 830.1,259.6 814.7,280.3  831.4,302.7 823.7,302.7 810.9,285.2 798.2,302.7 "></polygon><polygon class="st7" points="865.4,302.7 865.4,265.3 850.3,265.3 850.3,259.6 887,259.6 887,265.3 871.9,265.3 871.9,302.7 "></polygon></svg>